# xmcd
# 
# Track frame offsets:
#     150
#     24583
#     37119
#     61927
#     84531
#     100353
#     118290
#     124539
#     141145
#     163390
#     178562
#     193255
# 
# Disc length: 2771
# 
# Revision: 0
# Processed by: cddbd v1.5.2PL0 Copyright (c) Steve Scherf et al.
# Submitted via: fre:ac v1.0.31
# 
DISCID=ae0ad10c
DTITLE=Trinity - Trinity Live From Theaters, Clubs and Campfires - CD 1
DYEAR=0
DGENRE=
TTITLE0=Watchman
TTITLE1=Mas De Ti
TTITLE2=Wayfaring Stranger
TTITLE3=Extranjero
TTITLE4=May You Have (feat. Neema Ntalel)
TTITLE5=Welcome To The World (feat. Neema Ntalel)
TTITLE6=Taparana Iyook (feat. Neema Ntalel)
TTITLE7=Mdundo Sawa
TTITLE8=Freedom I Want (feat. Neema Ntalel)
TTITLE9=We Are Born (campfire session)
TTITLE10=The Way That I Do (campfire session)
TTITLE11=I Carry Your Heart (campfire session)
EXTD=
EXTT0=
EXTT1=
EXTT2=
EXTT3=
EXTT4=
EXTT5=
EXTT6=
EXTT7=
EXTT8=
EXTT9=
EXTT10=
EXTT11=
PLAYORDER=
